<svg id="Layer_1" data-name="Layer 1" xmlns="http://www.w3.org/2000/svg" viewBox="0 0 510.08 584.59"><defs><style>.cls-1{fill:#bd1e2d;}.cls-2{fill:#fefefe;}</style></defs><path class="cls-1" d="M2953.34,2079.42c-67.43.84-125.11-55.34-124.16-125.57.45-33.41,13.24-62.3,37.18-86s53.26-35.88,86.67-36c33-.14,62.16,11.69,86,34.77,27.15,26.32,40,58.77,38.1,96.54C3074,2024.06,3022.22,2079.85,2953.34,2079.42Z" transform="translate(-2567.22 -1831.81)"/><path d="M2848,2416.4c-14.6-13.93-22.76-30.87-26.59-50.23-2-10.11-1.86-20.28-1.2-30.34.61-9.33.42-18.61.46-27.91.09-19.76-9.8-34.38-24.54-46.5-18.3-15.05-35.82-30.92-49.41-50.57-8.93-12.9-20.83-21.53-36.5-23.33a93.79,93.79,0,0,0-25.31.36,36.51,36.51,0,0,1-8.23.09c-19-1.29-35,6.2-49.72,17.2-2.26,1.68-5,2.92-6.84,4.93-2.54,2.72-4.87,1.63-7.13.25a16.86,16.86,0,0,1-6.32-6.6,38.67,38.67,0,0,0-4-6.62c-4.05-5.07-7.38-11-7.35-17.66,0-3.88-.37-8.18.78-11.74,1.47-4.54,3.16-9.48,7.09-12.79a9.72,9.72,0,0,1,7.9-2.09c11.44,1.86,22.94,3.39,34.52,2.85,8.36-.39,16.83-1,24.21-5.85a16.09,16.09,0,0,0,7.81-14c.42-19.74-6.94-36.52-18.92-51.71-4.91-6.22-10.33-12.1-13.6-19.48a31.61,31.61,0,0,1-2.81-12.38c-.13-6.83.29-13.63.76-20.43.37-5.46-1.75-9.48-6.67-12.39-8.71-5.14-18.25-8.4-27.36-12.61-13.06-6-26.29-11.69-36.21-22.67a25.58,25.58,0,0,1-4.87-6.88c-1.91-4.45.27-7.93,5.08-7.93,11.84,0,23.55,1.34,35.28,2.9a303.28,303.28,0,0,1,127.22,49c6.37,4.33,10,10.69,11.16,18.64,1.08,7.35-.27,14.41-.82,21.6-1.15,14.84.43,29.1,9.2,41.87,5.7,8.31,10.95,17,18.59,23.73,8.43,7.45,15.93,9.94,26.7,5.35,12-5.11,23.35-4,33.24,5.16,2.76,2.54,6.31,2.81,9.53,3.07,7,.57,10.94,4.72,14.14,10.2.84,1.45,1.63,2.92,2.76,5-3.15,0-5.95-.18-8.71,0a110.18,110.18,0,0,0-14.21,1.65,15.88,15.88,0,0,0-8.88,4.75,34.65,34.65,0,0,1-15.38,10.32c-2.53.85-3.37,2.34-1.64,4.69,7.42,10.11,13.88,21,23.45,29.37,5.73,5,12,9.44,17.89,14.24,7.29,5.91,14.32,12.15,21.75,17.88,11.4,8.79,12.78,20.63,11.09,33.63-.47,3.66-.46,7.38-.73,11.06-.92,13-2.29,25.93-1.61,39,1.17,22.65-5.52,43.28-15.89,63A309.55,309.55,0,0,1,2848,2416.4Z" transform="translate(-2567.22 -1831.81)"/><path class="cls-2" d="M2738.27,2048.43c.2,6.46-1.06,13.28-1.45,20.16-.86,15.13,4.44,28.46,12.49,41,4.74,7.34,9.6,14.67,15.79,20.79,7.45,7.37,15.74,13.74,27.34,12.77,4.21-.35,7.95-2,11.8-3.42,9.31-3.4,17.69-2.1,25.08,4.76a20.92,20.92,0,0,0,4.59,3c.76.39,1.25.68,1.13,1.57s-.79.71-1.37.87a26.3,26.3,0,0,0-13,8.63c-3.19,3.7-7.9,4.77-11.9,7.05-2.54,1.44-5.05,2.82-6.71,5.41a6.4,6.4,0,0,0,.07,7.67c8.89,12.07,16.49,25.21,28.15,35,6.12,5.14,12.59,9.87,18.82,14.89,7.69,6.2,15.42,12.35,22.86,18.84,3.4,3,4.7,7.3,5,11.81.71,12-.91,24-1.6,36-.5,8.75-2,17.54-1.26,26.24,2.35,27.43-8.24,50.84-21.74,73.48-1.25,2.1-2.51,4.2-3.92,6.19-1.06,1.48-2.33,1.77-3.55,0-7.69-11.26-13.08-23.43-15.23-37-1.06-6.74-2.07-13.51-1.32-20.24,1.17-10.44.21-20.86.64-31.28.9-21.4-6.83-39-23.06-53-9.86-8.5-19.53-17.23-29.17-26-9.95-9-17.69-19.93-25.72-30.58-9.37-12.42-21.63-20.45-37-23.15-13.46-2.36-27-.76-40.5-.12a147.18,147.18,0,0,0-15.81,1.33c-10.7,1.69-19.54,7.22-28.39,12.83-3.62,2.3-7.29,4.55-10.68,7.17-2.71,2.1-4.26,1.14-4.75-1.56a10.84,10.84,0,0,0-5.3-8.07,3.45,3.45,0,0,1-1.41-4.57c1.21-2.25-.27-2.93-1.53-3.52-3.45-1.6-2.88-4.2-1.26-6.31,1.48-1.94,2-3.28.44-5.34-1.43-1.84-1-3.34,1.37-4.21,1.67-.61,3.22-1.38,1.82-3.75-.8-1.35,0-1.92,1.52-1.92,6.43,0,12.72,1.34,19.09,1.88a159.59,159.59,0,0,0,23.85.12,48.76,48.76,0,0,0,15.91-3.75c13.11-5.62,19.45-16.06,17.57-32.1-1.47-12.56-5.56-24-11.41-35a104.16,104.16,0,0,0-14.4-19.93c-7.46-8.41-10.8-18-9.52-29.06.42-3.57.38-7.13.7-10.68,1-10.62-4.25-17.29-13.14-22.15-9.43-5.17-19.51-8.83-29.22-13.33-8.83-4.1-17.62-8.24-25.41-14.19a14,14,0,0,1-1.87-1.82c-.72-.79-2-1.38-1.59-2.71.5-1.55,1.94-.75,2.88-.73,9.47.17,18.82,1.52,28.19,2.84a282.87,282.87,0,0,1,56.5,14.47,288.92,288.92,0,0,1,63.24,32.19c4.79,3.23,7,8.07,7.33,13.73C2738.38,2043.71,2738.27,2045.84,2738.27,2048.43Z" transform="translate(-2567.22 -1831.81)"/></svg>